<?xml version="1.0" encoding="utf-8"?>
<svg version="1.1" xmlns:xlink="http://www.w3.org/1999/xlink" width="168px" height="10px" preserveAspectRatio="xMinYMid meet" viewBox="1031 537  168 8" xmlns="http://www.w3.org/2000/svg">
  <path d="M 699 958  L 1189 958  A 5 5 0 0 0 1194 953 L 1194 546  A 5 5 0 0 0 1189 541 L 1041 541  A 5 5 0 0 1 1036 536 L 1036 510  " stroke-width="2" stroke="#0099cc" fill="none" />
  <path d="M 1031 512  L 1041 512  L 1041 510  L 1031 510  L 1031 512  Z M 1031.70710678119 519.107106781187  L 1036 514.814213562373  L 1040.29289321881 519.107106781187  L 1041.70710678119 517.692893218813  L 1036.70710678119 512.692893218813  L 1036 511.985786437627  L 1035.29289321881 512.692893218813  L 1030.29289321881 517.692893218813  L 1031.70710678119 519.107106781187  Z " fill-rule="nonzero" fill="#0099cc" stroke="none" />
</svg>