<?xml version="1.0" encoding="utf-8"?>
<svg version="1.1" xmlns:xlink="http://www.w3.org/1999/xlink" width="12px" height="12px" xmlns="http://www.w3.org/2000/svg">
  <g transform="matrix(1 0 0 1 -1553 -238 )">
    <path d="M 1559 239  C 1561.8 239  1564 241.2  1564 244  C 1564 246.8  1561.8 249  1559 249  C 1556.2 249  1554 246.8  1554 244  C 1554 241.2  1556.2 239  1559 239  Z " fill-rule="nonzero" fill="#ffffff" stroke="none" fill-opacity="0" />
    <path d="M 1559 239  C 1561.8 239  1564 241.2  1564 244  C 1564 246.8  1561.8 249  1559 249  C 1556.2 249  1554 246.8  1554 244  C 1554 241.2  1556.2 239  1559 239  Z " stroke-width="2" stroke="#000000" fill="none" />
  </g>
</svg>