<?xml version="1.0" encoding="utf-8"?>
<svg version="1.1" xmlns:xlink="http://www.w3.org/1999/xlink" width="7px" height="13px" xmlns="http://www.w3.org/2000/svg">
  <g transform="matrix(1 0 0 1 -1311 -238 )">
    <path d="M 6.87972508591065 0.781563126252504  C 6.95990836197022 0.868403473613893  7 0.968269873079491  7 1.0811623246493  C 7 1.1940547762191  6.95990836197022 1.2939211756847  6.87972508591065 1.38076152304609  L 2.15292096219931 6.5  L 6.87972508591065 11.6192384769539  C 6.95990836197022 11.7060788243153  7 11.8059452237809  7 11.9188376753507  C 7 12.0317301269205  6.95990836197022 12.1315965263861  6.87972508591065 12.2184368737475  L 6.27835051546392 12.8697394789579  C 6.19816723940435 12.9565798263193  6.10595647193585 13  6.00171821305842 13  C 5.89747995418099 13  5.80526918671249 12.9565798263193  5.72508591065292 12.8697394789579  L 0.120274914089347 6.79959919839679  C 0.0400916380297824 6.7127588510354  0 6.61289245156981  0 6.5  C 0 6.38710754843019  0.0400916380297824 6.2872411489646  0.120274914089347 6.20040080160321  L 5.72508591065292 0.130260521042084  C 5.80526918671249 0.0434201736806943  5.89747995418099 0  6.00171821305842 0  C 6.10595647193585 0  6.19816723940435 0.0434201736806943  6.27835051546392 0.130260521042084  L 6.87972508591065 0.781563126252504  Z " fill-rule="nonzero" fill="#333333" stroke="none" transform="matrix(1 0 0 1 1311 238 )" />
  </g>
</svg>