<?xml version="1.0" encoding="utf-8"?>
<svg version="1.1" xmlns:xlink="http://www.w3.org/1999/xlink" width="12px" height="12px" xmlns="http://www.w3.org/2000/svg">
  <g transform="matrix(1 0 0 1 -1325 -238 )">
    <path d="M 1331 239  C 1333.8 239  1336 241.2  1336 244  C 1336 246.8  1333.8 249  1331 249  C 1328.2 249  1326 246.8  1326 244  C 1326 241.2  1328.2 239  1331 239  Z " fill-rule="nonzero" fill="#ffffff" stroke="none" fill-opacity="0" />
    <path d="M 1331 239  C 1333.8 239  1336 241.2  1336 244  C 1336 246.8  1333.8 249  1331 249  C 1328.2 249  1326 246.8  1326 244  C 1326 241.2  1328.2 239  1331 239  Z " stroke-width="2" stroke="#000000" fill="none" />
  </g>
</svg>